<svg width="800" height="600" viewBox="0 0 800 600" xmlns="http://www.w3.org/2000/svg">
  <defs>
    <linearGradient id="authGradient" x1="0%" y1="0%" x2="100%" y2="100%">
      <stop offset="0%" style="stop-color:#3b82f6;stop-opacity:1" />
      <stop offset="50%" style="stop-color:#1e40af;stop-opacity:1" />
      <stop offset="100%" style="stop-color:#1e3a8a;stop-opacity:1" />
    </linearGradient>
    <pattern id="authPattern" x="0" y="0" width="80" height="80" patternUnits="userSpaceOnUse">
      <rect width="80" height="80" fill="rgba(255,255,255,0.03)" />
      <path d="M40 20 L40 60 M20 40 L60 40" stroke="rgba(255,255,255,0.08)" stroke-width="1" />
    </pattern>
  </defs>
  
  <!-- Background -->
  <rect width="800" height="600" fill="url(#authGradient)" />
  <rect width="800" height="600" fill="url(#authPattern)" />
  
  <!-- Large Medical Cross -->
  <g transform="translate(50, 100)">
    <circle cx="100" cy="100" r="80" fill="rgba(255,255,255,0.1)" />
    <rect x="70" y="50" width="60" height="20" fill="rgba(255,255,255,0.2)" rx="10" />
    <rect x="90" y="30" width="20" height="60" fill="rgba(255,255,255,0.2)" rx="10" />
    <rect x="70" y="130" width="60" height="20" fill="rgba(255,255,255,0.2)" rx="10" />
    <rect x="90" y="110" width="20" height="60" fill="rgba(255,255,255,0.2)" rx="10" />
  </g>
  
  <!-- Hospital Building Silhouette -->
  <g transform="translate(600, 150)">
    <!-- Main Building -->
    <rect x="0" y="100" width="150" height="200" fill="rgba(255,255,255,0.15)" rx="10" />
    
    <!-- Emergency Cross -->
    <rect x="65" y="50" width="20" height="10" fill="rgba(239, 68, 68, 0.8)" rx="3" />
    <rect x="70" y="45" width="10" height="20" fill="rgba(239, 68, 68, 0.8)" rx="3" />
    
    <!-- Windows Pattern -->
    <rect x="20" y="130" width="15" height="15" fill="rgba(255,255,255,0.3)" rx="2" />
    <rect x="45" y="130" width="15" height="15" fill="rgba(255,255,255,0.3)" rx="2" />
    <rect x="90" y="130" width="15" height="15" fill="rgba(255,255,255,0.3)" rx="2" />
    <rect x="115" y="130" width="15" height="15" fill="rgba(255,255,255,0.3)" rx="2" />
    
    <rect x="20" y="160" width="15" height="15" fill="rgba(255,255,255,0.3)" rx="2" />
    <rect x="45" y="160" width="15" height="15" fill="rgba(255,255,255,0.3)" rx="2" />
    <rect x="90" y="160" width="15" height="15" fill="rgba(255,255,255,0.3)" rx="2" />
    <rect x="115" y="160" width="15" height="15" fill="rgba(255,255,255,0.3)" rx="2" />
    
    <rect x="20" y="190" width="15" height="15" fill="rgba(255,255,255,0.3)" rx="2" />
    <rect x="45" y="190" width="15" height="15" fill="rgba(255,255,255,0.3)" rx="2" />
    <rect x="90" y="190" width="15" height="15" fill="rgba(255,255,255,0.3)" rx="2" />
    <rect x="115" y="190" width="15" height="15" fill="rgba(255,255,255,0.3)" rx="2" />
    
    <!-- Entrance -->
    <rect x="65" y="250" width="20" height="50" fill="rgba(255,255,255,0.4)" rx="10" />
  </g>
  
  <!-- Stethoscope -->
  <g transform="translate(100, 350)">
    <path d="M50 20 Q40 10 30 20 Q20 30 30 40 L30 80" stroke="rgba(255,255,255,0.4)" stroke-width="4" fill="none" />
    <path d="M70 20 Q80 10 90 20 Q100 30 90 40 L90 80" stroke="rgba(255,255,255,0.4)" stroke-width="4" fill="none" />
    <circle cx="25" cy="85" r="10" fill="rgba(255,255,255,0.4)" />
    <circle cx="95" cy="85" r="10" fill="rgba(255,255,255,0.4)" />
    <path d="M30 80 Q60 90 90 80" stroke="rgba(255,255,255,0.4)" stroke-width="4" fill="none" />
  </g>
  
  <!-- Heartbeat Line -->
  <g transform="translate(200, 400)">
    <path d="M0 50 L50 50 L60 20 L70 80 L80 10 L90 90 L100 50 L200 50" 
          stroke="rgba(239, 68, 68, 0.6)" stroke-width="3" fill="none" />
  </g>
  
  <!-- Medical Pills -->
  <g transform="translate(500, 400)">
    <ellipse cx="20" cy="20" rx="12" ry="18" fill="rgba(245, 158, 11, 0.6)" />
    <ellipse cx="50" cy="30" rx="18" ry="12" fill="rgba(139, 92, 246, 0.6)" />
    <ellipse cx="80" cy="15" rx="10" ry="15" fill="rgba(239, 68, 68, 0.6)" />
  </g>
  
  <!-- DNA Helix -->
  <g transform="translate(300, 50)">
    <path d="M0 100 Q25 70 50 100 Q75 130 100 100 Q125 70 150 100" 
          stroke="rgba(16, 185, 129, 0.4)" stroke-width="3" fill="none" />
    <path d="M0 120 Q25 150 50 120 Q75 90 100 120 Q125 150 150 120" 
          stroke="rgba(16, 185, 129, 0.4)" stroke-width="3" fill="none" />
    
    <!-- DNA Base Pairs -->
    <line x1="15" y1="90" x2="15" y2="130" stroke="rgba(16, 185, 129, 0.3)" stroke-width="2" />
    <line x1="35" y1="85" x2="35" y2="135" stroke="rgba(16, 185, 129, 0.3)" stroke-width="2" />
    <line x1="65" y1="115" x2="65" y2="105" stroke="rgba(16, 185, 129, 0.3)" stroke-width="2" />
    <line x1="85" y1="120" x2="85" y2="100" stroke="rgba(16, 185, 129, 0.3)" stroke-width="2" />
    <line x1="115" y1="90" x2="115" y2="130" stroke="rgba(16, 185, 129, 0.3)" stroke-width="2" />
    <line x1="135" y1="85" x2="135" y2="135" stroke="rgba(16, 185, 129, 0.3)" stroke-width="2" />
  </g>
  
  <!-- Shield (Security) -->
  <g transform="translate(400, 200)">
    <path d="M60 20 Q40 25 40 50 Q40 75 60 90 Q80 75 80 50 Q80 25 60 20 Z" 
          fill="rgba(16, 185, 129, 0.5)" />
    <path d="M50 45 L57 52 L70 35" stroke="white" stroke-width="3" fill="none" />
  </g>
  
  <!-- Floating Medical Icons -->
  <g opacity="0.3">
    <!-- Medical Bag -->
    <g transform="translate(150, 50)">
      <rect x="0" y="10" width="30" height="20" fill="rgba(255,255,255,0.5)" rx="5" />
      <rect x="12" y="0" width="6" height="15" fill="rgba(255,255,255,0.5)" rx="3" />
      <rect x="10" y="17" width="10" height="3" fill="rgba(239, 68, 68, 0.7)" rx="1" />
      <rect x="13" y="14" width="4" height="9" fill="rgba(239, 68, 68, 0.7)" rx="1" />
    </g>
    
    <!-- Thermometer -->
    <g transform="translate(700, 50)">
      <rect x="0" y="0" width="4" height="40" fill="rgba(255,255,255,0.5)" rx="2" />
      <circle cx="2" cy="45" r="6" fill="rgba(239, 68, 68, 0.7)" />
      <rect x="1" y="35" width="2" height="15" fill="rgba(239, 68, 68, 0.7)" />
    </g>
    
    <!-- Microscope -->
    <g transform="translate(50, 500)">
      <rect x="0" y="20" width="25" height="4" fill="rgba(255,255,255,0.5)" />
      <rect x="10" y="0" width="4" height="25" fill="rgba(255,255,255,0.5)" />
      <circle cx="12" cy="5" r="5" fill="rgba(255,255,255,0.5)" />
      <rect x="8" y="24" width="8" height="6" fill="rgba(255,255,255,0.5)" rx="2" />
    </g>
  </g>
  
  <!-- Particle Effects -->
  <circle cx="100" cy="150" r="2" fill="rgba(255,255,255,0.4)" />
  <circle cx="300" cy="100" r="3" fill="rgba(255,255,255,0.3)" />
  <circle cx="500" cy="180" r="2" fill="rgba(255,255,255,0.5)" />
  <circle cx="650" cy="120" r="2" fill="rgba(255,255,255,0.4)" />
  <circle cx="200" cy="500" r="3" fill="rgba(255,255,255,0.3)" />
  <circle cx="600" cy="450" r="2" fill="rgba(255,255,255,0.4)" />
  <circle cx="450" cy="550" r="2" fill="rgba(255,255,255,0.5)" />
  
</svg>
