<svg width="1200" height="600" viewBox="0 0 1200 600" xmlns="http://www.w3.org/2000/svg">
  <defs>
    <linearGradient id="hospitalGradient" x1="0%" y1="0%" x2="100%" y2="100%">
      <stop offset="0%" style="stop-color:#3b82f6;stop-opacity:1" />
      <stop offset="100%" style="stop-color:#1e40af;stop-opacity:1" />
    </linearGradient>
    <pattern id="medicalPattern" x="0" y="0" width="60" height="60" patternUnits="userSpaceOnUse">
      <rect width="60" height="60" fill="rgba(255,255,255,0.05)" />
      <path d="M30 10 L30 50 M10 30 L50 30" stroke="rgba(255,255,255,0.1)" stroke-width="2" />
    </pattern>
  </defs>
  
  <!-- Background -->
  <rect width="1200" height="600" fill="url(#hospitalGradient)" />
  <rect width="1200" height="600" fill="url(#medicalPattern)" />
  
  <!-- Hospital Building -->
  <g transform="translate(800, 150)">
    <!-- Main Building -->
    <rect x="0" y="100" width="300" height="300" fill="rgba(255,255,255,0.9)" rx="10" />
    
    <!-- Red Cross -->
    <rect x="130" y="50" width="40" height="20" fill="#ef4444" rx="5" />
    <rect x="140" y="40" width="20" height="40" fill="#ef4444" rx="5" />
    
    <!-- Windows -->
    <rect x="30" y="150" width="40" height="40" fill="#3b82f6" rx="5" opacity="0.6" />
    <rect x="90" y="150" width="40" height="40" fill="#3b82f6" rx="5" opacity="0.6" />
    <rect x="170" y="150" width="40" height="40" fill="#3b82f6" rx="5" opacity="0.6" />
    <rect x="230" y="150" width="40" height="40" fill="#3b82f6" rx="5" opacity="0.6" />
    
    <rect x="30" y="220" width="40" height="40" fill="#3b82f6" rx="5" opacity="0.6" />
    <rect x="90" y="220" width="40" height="40" fill="#3b82f6" rx="5" opacity="0.6" />
    <rect x="170" y="220" width="40" height="40" fill="#3b82f6" rx="5" opacity="0.6" />
    <rect x="230" y="220" width="40" height="40" fill="#3b82f6" rx="5" opacity="0.6" />
    
    <!-- Entrance -->
    <rect x="120" y="320" width="60" height="80" fill="#2563eb" rx="30" />
  </g>
  
  <!-- Medical Equipment Icons -->
  <g transform="translate(100, 200)">
    <!-- Stethoscope -->
    <circle cx="50" cy="50" r="40" fill="rgba(255,255,255,0.1)" />
    <path d="M30 30 Q30 20 40 20 Q50 20 50 30 L50 60 Q50 70 40 70 Q30 70 30 60 Z" fill="white" opacity="0.8" />
    <circle cx="25" cy="65" r="8" fill="white" opacity="0.8" />
    <circle cx="55" cy="65" r="8" fill="white" opacity="0.8" />
  </g>
  
  <g transform="translate(200, 300)">
    <!-- Heart -->
    <circle cx="50" cy="50" r="40" fill="rgba(255,255,255,0.1)" />
    <path d="M50 75 C35 60, 15 45, 15 30 C15 20, 25 15, 35 20 C40 22, 45 25, 50 30 C55 25, 60 22, 65 20 C75 15, 85 20, 85 30 C85 45, 65 60, 50 75 Z" fill="#ef4444" opacity="0.9" />
  </g>
  
  <g transform="translate(150, 100)">
    <!-- Medical Cross -->
    <circle cx="50" cy="50" r="40" fill="rgba(255,255,255,0.1)" />
    <rect x="35" y="25" width="30" height="10" fill="#10b981" rx="5" />
    <rect x="45" y="15" width="10" height="30" fill="#10b981" rx="5" />
    <rect x="35" y="55" width="30" height="10" fill="#10b981" rx="5" />
    <rect x="45" y="65" width="10" height="30" fill="#10b981" rx="5" />
  </g>
  
  <!-- Floating Particles -->
  <circle cx="300" cy="150" r="3" fill="rgba(255,255,255,0.6)" opacity="0.8" />
  <circle cx="450" cy="200" r="2" fill="rgba(255,255,255,0.7)" opacity="0.9" />
  <circle cx="600" cy="180" r="4" fill="rgba(255,255,255,0.5)" opacity="0.7" />
  <circle cx="750" cy="120" r="3" fill="rgba(255,255,255,0.6)" opacity="0.8" />
  <circle cx="350" cy="400" r="2" fill="rgba(255,255,255,0.7)" opacity="0.9" />
  <circle cx="500" cy="450" r="3" fill="rgba(255,255,255,0.6)" opacity="0.8" />
  
  <!-- Text Area (for overlay content) -->
  <rect x="50" y="450" width="600" height="100" fill="rgba(255,255,255,0.1)" rx="15" />
  
</svg>
