<svg width="1600" height="900" viewBox="0 0 1600 900" xmlns="http://www.w3.org/2000/svg">
  <defs>
    <linearGradient id="medicalGradient" x1="0%" y1="0%" x2="100%" y2="100%">
      <stop offset="0%" style="stop-color:#10b981;stop-opacity:0.8" />
      <stop offset="100%" style="stop-color:#047857;stop-opacity:0.7" />
    </linearGradient>
    <radialGradient id="pulseGradient" cx="50%" cy="50%" r="50%">
      <stop offset="0%" style="stop-color:rgba(255,255,255,0.2);stop-opacity:1" />
      <stop offset="100%" style="stop-color:rgba(255,255,255,0);stop-opacity:0" />
    </radialGradient>
  </defs>
  
  <!-- Background -->
  <rect width="1200" height="600" fill="url(#medicalGradient)" />
  
  <!-- DNA Helix Pattern -->
  <g opacity="0.1">
    <path d="M0 300 Q150 200 300 300 Q450 400 600 300 Q750 200 900 300 Q1050 400 1200 300" stroke="white" stroke-width="2" fill="none" />
    <path d="M0 320 Q150 420 300 320 Q450 220 600 320 Q750 420 900 320 Q1050 220 1200 320" stroke="white" stroke-width="2" fill="none" />
  </g>
  
  <!-- Doctor Silhouette -->
  <g transform="translate(800, 100)">
    <!-- Doctor Figure -->
    <ellipse cx="100" cy="400" rx="60" ry="20" fill="rgba(255,255,255,0.2)" />
    
    <!-- Body -->
    <rect x="70" y="200" width="60" height="200" fill="rgba(255,255,255,0.9)" rx="30" />
    
    <!-- Head -->
    <circle cx="100" cy="120" r="40" fill="rgba(255,255,255,0.9)" />
    
    <!-- Stethoscope -->
    <path d="M80 140 Q70 150 70 160 L70 180" stroke="#3b82f6" stroke-width="3" fill="none" />
    <path d="M120 140 Q130 150 130 160 L130 180" stroke="#3b82f6" stroke-width="3" fill="none" />
    <circle cx="65" cy="185" r="8" fill="#3b82f6" />
    <circle cx="135" cy="185" r="8" fill="#3b82f6" />
    <path d="M70 180 Q100 190 130 180" stroke="#3b82f6" stroke-width="3" fill="none" />
    
    <!-- Lab Coat -->
    <rect x="65" y="160" width="70" height="140" fill="rgba(255,255,255,0.95)" rx="15" />
    
    <!-- Arms -->
    <rect x="40" y="180" width="25" height="80" fill="rgba(255,255,255,0.9)" rx="12" />
    <rect x="135" y="180" width="25" height="80" fill="rgba(255,255,255,0.9)" rx="12" />
  </g>
  
  <!-- Medical Icons -->
  <g transform="translate(100, 150)">
    <!-- Heartbeat Monitor -->
    <rect x="0" y="40" width="200" height="120" fill="rgba(255,255,255,0.1)" rx="15" />
    <rect x="10" y="50" width="180" height="100" fill="rgba(0,0,0,0.3)" rx="10" />
    
    <!-- Heartbeat Line -->
    <path d="M20 100 L40 100 L50 70 L60 130 L70 50 L80 150 L90 100 L180 100" 
          stroke="#ef4444" stroke-width="3" fill="none" />
    
    <!-- Screen Glow -->
    <rect x="10" y="50" width="180" height="100" fill="url(#pulseGradient)" rx="10" />
  </g>
  
  <!-- Medical Cross -->
  <g transform="translate(350, 200)">
    <circle cx="50" cy="50" r="45" fill="rgba(255,255,255,0.9)" />
    <rect x="35" y="20" width="30" height="15" fill="#ef4444" rx="7" />
    <rect x="42.5" y="12.5" width="15" height="30" fill="#ef4444" rx="7" />
    <rect x="35" y="65" width="30" height="15" fill="#ef4444" rx="7" />
    <rect x="42.5" y="57.5" width="15" height="30" fill="#ef4444" rx="7" />
  </g>
  
  <!-- Pills -->
  <g transform="translate(500, 300)">
    <ellipse cx="30" cy="30" rx="15" ry="25" fill="#f59e0b" opacity="0.8" />
    <ellipse cx="60" cy="45" rx="20" ry="15" fill="#8b5cf6" opacity="0.8" />
    <ellipse cx="90" cy="25" rx="12" ry="20" fill="#ef4444" opacity="0.8" />
  </g>
  
  <!-- Virus/Bacteria (being fought) -->
  <g transform="translate(200, 400)">
    <circle cx="40" cy="40" r="25" fill="rgba(239, 68, 68, 0.3)" />
    <circle cx="35" cy="35" r="3" fill="#ef4444" />
    <circle cx="45" cy="35" r="3" fill="#ef4444" />
    <circle cx="40" cy="45" r="3" fill="#ef4444" />
    
    <!-- Spikes -->
    <rect x="38" y="10" width="4" height="15" fill="#ef4444" rx="2" />
    <rect x="55" y="38" width="15" height="4" fill="#ef4444" rx="2" />
    <rect x="38" y="65" width="4" height="15" fill="#ef4444" rx="2" />
    <rect x="10" y="38" width="15" height="4" fill="#ef4444" rx="2" />
  </g>
  
  <!-- Shield (Protection) -->
  <g transform="translate(280, 350)">
    <path d="M40 20 Q20 25 20 45 Q20 65 40 80 Q60 65 60 45 Q60 25 40 20 Z" 
          fill="rgba(16, 185, 129, 0.9)" />
    <path d="M30 40 L37 47 L50 32" stroke="white" stroke-width="3" fill="none" />
  </g>
  
  <!-- Data/Analytics -->
  <g transform="translate(600, 150)">
    <rect x="0" y="20" width="8" height="60" fill="rgba(255,255,255,0.8)" rx="4" />
    <rect x="15" y="35" width="8" height="45" fill="rgba(255,255,255,0.8)" rx="4" />
    <rect x="30" y="10" width="8" height="70" fill="rgba(255,255,255,0.8)" rx="4" />
    <rect x="45" y="25" width="8" height="55" fill="rgba(255,255,255,0.8)" rx="4" />
    <rect x="60" y="40" width="8" height="40" fill="rgba(255,255,255,0.8)" rx="4" />
  </g>
  
  <!-- Floating Medical Particles -->
  <circle cx="150" cy="100" r="2" fill="rgba(255,255,255,0.7)" />
  <circle cx="400" cy="80" r="3" fill="rgba(255,255,255,0.6)" />
  <circle cx="650" cy="120" r="2" fill="rgba(255,255,255,0.8)" />
  <circle cx="750" cy="400" r="3" fill="rgba(255,255,255,0.6)" />
  <circle cx="950" cy="250" r="2" fill="rgba(255,255,255,0.7)" />
  
</svg>
