<svg width="1200" height="200" viewBox="0 0 1200 200" xmlns="http://www.w3.org/2000/svg">
  <defs>
    <linearGradient id="promoGradient" x1="0%" y1="0%" x2="100%" y2="0%">
      <stop offset="0%" style="stop-color:#ef4444;stop-opacity:1" />
      <stop offset="50%" style="stop-color:#dc2626;stop-opacity:1" />
      <stop offset="100%" style="stop-color:#b91c1c;stop-opacity:1" />
    </linearGradient>
    <pattern id="starPattern" x="0" y="0" width="50" height="50" patternUnits="userSpaceOnUse">
      <polygon points="25,5 30,20 45,20 33,30 38,45 25,35 12,45 17,30 5,20 20,20" 
               fill="rgba(255,255,255,0.1)" />
    </pattern>
  </defs>
  
  <!-- Background -->
  <rect width="1200" height="200" fill="url(#promoGradient)" />
  <rect width="1200" height="200" fill="url(#starPattern)" />
  
  <!-- Sale Badge -->
  <g transform="translate(50, 50)">
    <circle cx="50" cy="50" r="45" fill="rgba(255,255,255,0.9)" />
    <circle cx="50" cy="50" r="35" fill="#ef4444" />
    <text x="50" y="45" text-anchor="middle" fill="white" font-family="Arial" font-size="16" font-weight="bold">50%</text>
    <text x="50" y="60" text-anchor="middle" fill="white" font-family="Arial" font-size="10" font-weight="bold">OFF</text>
  </g>
  
  <!-- Main Promo Text -->
  <g transform="translate(150, 70)">
    <text x="0" y="0" fill="white" font-family="Arial" font-size="24" font-weight="bold">🎯 LIMITED TIME OFFER</text>
    <text x="0" y="30" fill="rgba(255,255,255,0.9)" font-family="Arial" font-size="16">Get Premium Healthcare Management at 50% OFF!</text>
    <text x="0" y="55" fill="rgba(255,255,255,0.8)" font-family="Arial" font-size="12">✨ AI-Powered Diagnostics • 🏥 Complete Hospital Management • 📊 Advanced Analytics</text>
  </g>
  
  <!-- Countdown Timer -->
  <g transform="translate(700, 40)">
    <rect x="0" y="0" width="300" height="80" fill="rgba(255,255,255,0.1)" rx="10" />
    <text x="150" y="20" text-anchor="middle" fill="white" font-family="Arial" font-size="12" font-weight="bold">⏰ OFFER ENDS IN:</text>
    
    <!-- Timer Boxes -->
    <rect x="30" y="30" width="40" height="40" fill="rgba(255,255,255,0.9)" rx="5" />
    <text x="50" y="45" text-anchor="middle" fill="#ef4444" font-family="Arial" font-size="14" font-weight="bold">23</text>
    <text x="50" y="60" text-anchor="middle" fill="#ef4444" font-family="Arial" font-size="8">HOURS</text>
    
    <rect x="90" y="30" width="40" height="40" fill="rgba(255,255,255,0.9)" rx="5" />
    <text x="110" y="45" text-anchor="middle" fill="#ef4444" font-family="Arial" font-size="14" font-weight="bold">59</text>
    <text x="110" y="60" text-anchor="middle" fill="#ef4444" font-family="Arial" font-size="8">MINS</text>
    
    <rect x="150" y="30" width="40" height="40" fill="rgba(255,255,255,0.9)" rx="5" />
    <text x="170" y="45" text-anchor="middle" fill="#ef4444" font-family="Arial" font-size="14" font-weight="bold">45</text>
    <text x="170" y="60" text-anchor="middle" fill="#ef4444" font-family="Arial" font-size="8">SECS</text>
    
    <!-- Separator -->
    <text x="75" y="55" text-anchor="middle" fill="white" font-family="Arial" font-size="20" font-weight="bold">:</text>
    <text x="135" y="55" text-anchor="middle" fill="white" font-family="Arial" font-size="20" font-weight="bold">:</text>
  </g>
  
  <!-- CTA Button -->
  <g transform="translate(1020, 60)">
    <rect x="0" y="0" width="150" height="50" fill="rgba(255,255,255,0.95)" rx="25" />
    <rect x="5" y="5" width="140" height="40" fill="white" rx="20" />
    <text x="75" y="30" text-anchor="middle" fill="#ef4444" font-family="Arial" font-size="14" font-weight="bold">CLAIM OFFER</text>
    
    <!-- Arrow -->
    <path d="M130 20 L140 25 L130 30" stroke="#ef4444" stroke-width="2" fill="none" />
  </g>
  
  <!-- Medical Icons -->
  <g transform="translate(20, 150)">
    <!-- Medical Cross -->
    <rect x="10" y="5" width="20" height="5" fill="rgba(255,255,255,0.7)" rx="2" />
    <rect x="17.5" y="-2.5" width="5" height="20" fill="rgba(255,255,255,0.7)" rx="2" />
  </g>
  
  <g transform="translate(1150, 150)">
    <!-- Stethoscope -->
    <path d="M10 5 Q5 0 0 5 L0 15" stroke="rgba(255,255,255,0.7)" stroke-width="2" fill="none" />
    <path d="M20 5 Q25 0 30 5 L30 15" stroke="rgba(255,255,255,0.7)" stroke-width="2" fill="none" />
    <circle cx="-3" cy="18" r="3" fill="rgba(255,255,255,0.7)" />
    <circle cx="33" cy="18" r="3" fill="rgba(255,255,255,0.7)" />
  </g>
  
  <!-- Decorative Elements -->
  <circle cx="200" cy="30" r="3" fill="rgba(255,255,255,0.6)" />
  <circle cx="450" cy="180" r="2" fill="rgba(255,255,255,0.7)" />
  <circle cx="800" cy="20" r="4" fill="rgba(255,255,255,0.5)" />
  <circle cx="600" cy="170" r="3" fill="rgba(255,255,255,0.6)" />
  
</svg>
